<?xml version="1.0" ?><svg xmlns="http://www.w3.org/2000/svg" xmlnsxlink="http://www.w3.org/1999/xlink" version="1.1" viewBox="0 0 512 512" style="enable-background:new 0 0 512 512;" xmlspace="preserve"><g id="_x32_6_x2C__headphones_x2C__music_headphones_x2C__audio_headphones_x2C__music_headphone_x2C__electronics_x2C__audio"><g><path d="M256,1C115.049,1,1,115.069,1,256v115c0,22.056,17.944,40,40,40v10c0,24.146,17.205,44.348,40,48.994V471    c0,22.056,17.944,40,40,40h30c22.056,0,40-17.944,40-40V321c0-22.056-17.944-40-40-40h-30c-22.056,0-40,17.944-40,40v1.006    c-7.386,1.505-14.183,4.644-20,9.021V256c0-50.344,19.179-96.293,50.612-130.926c17.179,13.236,40.774,13.685,58.476,1.849    c51.62-34.515,119.998-34.653,171.827,0.002c17.723,11.843,41.31,11.369,58.473-1.851C431.821,159.707,451,205.655,451,256v75.027    c-5.817-4.377-12.614-7.516-20-9.021V321c0-22.056-17.944-40-40-40h-30c-22.056,0-40,17.944-40,40v150c0,22.056,17.944,40,40,40    h30c22.056,0,40-17.944,40-40v-1.006c22.795-4.646,40-24.847,40-48.994v-10c22.056,0,40-17.944,40-40V256    C511,115.049,396.931,1,256,1z M101,321c0-11.028,8.972-20,20-20h30c11.028,0,20,8.972,20,20v150c0,11.028-8.972,20-20,20h-30    c-11.028,0-20-8.972-20-20V321z M81,342.72v106.56c-11.639-4.128-20-15.243-20-28.28v-50C61,357.964,69.361,346.848,81,342.72z     M353.028,110.298c-58.564-39.16-135.715-39.01-194.056-0.001c-9.863,6.594-22.801,6.939-32.953,0.476    c74.099-66.39,185.896-66.361,259.963,0.001C375.816,117.247,362.874,116.876,353.028,110.298z M411,471c0,11.028-8.972,20-20,20    h-30c-11.028,0-20-8.972-20-20V321c0-11.028,8.972-20,20-20h30c11.028,0,20,8.972,20,20V471z M451,421    c0,13.036-8.361,24.152-20,28.28V342.72c11.639,4.128,20,15.243,20,28.28V421z"/></g></g><g id="Layer_1"/></svg>