<?xml version="1.0" ?><!DOCTYPE svg  PUBLIC '-//W3C//DTD SVG 1.1//EN'  'http://www.w3.org/Graphics/SVG/1.1/DTD/svg11.dtd'><svg xmlns="http://www.w3.org/2000/svg" xmlnsxlink="http://www.w3.org/1999/xlink" xmlnsserif="http://www.serif.com/" width="100%" height="100%" viewBox="0 0 64 64" version="1.1" xmlspace="preserve" style="fill-rule:evenodd;clip-rule:evenodd;stroke-linejoin:round;stroke-miterlimit:2;"><g transform="matrix(1,0,0,1,-508,-8)"><g id="Artboard1" transform="matrix(1,0,0,1,420,0)"><rect x="0" y="0" width="400" height="400" style="fill:none;"/><g transform="matrix(1,0,0,1,0,-4)"><path d="M130.293,28.707L137.273,35.687C137.663,36.077 138.297,36.077 138.687,35.687C139.077,35.297 139.077,34.663 138.687,34.273L131.707,27.293C131.317,26.903 130.683,26.903 130.293,27.293C129.903,27.683 129.903,28.317 130.293,28.707Z"/><g transform="matrix(1.86107,0.00144505,0.00144505,1.86107,-118.84,-24.3395)"><path d="M130.62,28.38L137.6,35.36C137.809,35.57 138.15,35.569 138.359,35.359C138.569,35.15 138.57,34.809 138.36,34.6L131.38,27.62C131.171,27.41 130.83,27.41 130.62,27.62C130.41,27.83 130.41,28.171 130.62,28.38Z"/></g><g transform="matrix(1.39544,-0.464182,-0.464182,1.39544,-38.3052,62.2357)"><path d="M130.62,28.38L137.6,35.36C138.019,35.779 138.529,35.949 138.739,35.739C138.949,35.529 138.779,35.019 138.36,34.6L131.38,27.62C130.961,27.201 130.451,27.031 130.241,27.241C130.031,27.451 130.201,27.961 130.62,28.38Z"/></g><g transform="matrix(1,0,0,1,-447.124,0)"><path d="M540.124,59L539.124,59C538.572,59 538.124,59.448 538.124,60L538.124,64C538.124,66.761 540.362,69 543.124,69L591.124,69C593.885,69 596.124,66.761 596.124,64L596.124,60C596.124,59.448 595.676,59 595.124,59L594.124,59L594.124,22C594.124,20.343 592.781,19 591.124,19C582.856,19 551.392,19 543.124,19C541.467,19 540.124,20.343 540.124,22L540.124,59ZM541.122,61L540.124,61L540.124,64C540.124,65.657 541.467,67 543.124,67L591.124,67C592.781,67 594.124,65.657 594.124,64L594.124,61L593.126,61L593.124,61L576.194,61L576.163,61L576.132,61.002L576.101,61.004L576.07,61.008L576.04,61.012L576.009,61.017L575.979,61.023L575.949,61.03L575.92,61.038L575.89,61.047L575.862,61.057L575.833,61.068L575.805,61.079L575.777,61.091L575.749,61.104L575.722,61.118L575.696,61.133L575.67,61.149L575.644,61.165L575.619,61.182L575.594,61.2L575.57,61.219L575.546,61.238L575.523,61.258L575.501,61.279L575.479,61.301L575.458,61.323L575.438,61.346L575.418,61.37L575.408,61.382L575.398,61.394L575.389,61.407L575.38,61.42L575.369,61.436L575.362,61.445L574.55,62.664L574.537,62.684L574.523,62.703L574.51,62.722L574.496,62.741L574.483,62.76L574.469,62.779L574.455,62.798L574.441,62.817L574.427,62.835L574.412,62.854L574.398,62.872L574.383,62.89L574.369,62.908L574.354,62.926L574.339,62.944L574.324,62.961L574.309,62.979L574.293,62.996L574.278,63.013L574.262,63.03L574.247,63.047L574.231,63.064L574.215,63.081L574.199,63.097L574.183,63.114L574.166,63.13L574.15,63.146L574.133,63.162L574.117,63.178L574.1,63.194L574.083,63.209L574.066,63.225L574.049,63.24L574.032,63.255L574.014,63.271L573.997,63.285L573.979,63.3L573.962,63.315L573.944,63.329L573.926,63.344L573.908,63.358L573.89,63.372L573.872,63.386L573.854,63.4C573.343,63.783 572.716,63.999 572.059,64L572.054,64L562.194,64L562.161,64L562.124,63.999L562.091,63.998L562.054,63.997L562.02,63.995L561.984,63.993L561.95,63.99L561.914,63.987L561.891,63.985L561.868,63.982L561.845,63.98L561.822,63.977L561.799,63.974L561.776,63.971L561.753,63.967L561.73,63.964L561.707,63.96L561.685,63.956L561.662,63.952L561.639,63.948L561.616,63.944C560.848,63.793 560.16,63.345 559.712,62.684L559.698,62.664L558.886,61.445L558.877,61.432L558.868,61.42C558.681,61.157 558.377,61 558.054,61L541.124,61L541.122,61ZM592.124,59L592.124,22C592.124,21.448 591.676,21 591.124,21L543.124,21C542.572,21 542.124,21.448 542.124,22L542.124,59L558.054,59L558.077,59L558.101,59L558.124,59.001L558.147,59.001L558.171,59.002L558.194,59.003L558.217,59.004L558.241,59.006L558.264,59.007L558.287,59.009L558.31,59.011L558.334,59.013L558.357,59.015L558.38,59.018L558.403,59.02L558.437,59.025L558.472,59.029L558.506,59.034L558.541,59.04L558.563,59.044L558.586,59.048L558.609,59.052L558.631,59.056L558.654,59.061L558.677,59.065L558.699,59.07L558.721,59.075L558.744,59.08L558.766,59.086L558.789,59.091L558.811,59.097L558.833,59.103L558.855,59.109L558.877,59.115L558.899,59.122L558.921,59.128L558.943,59.135L558.965,59.142L558.987,59.149L559.008,59.156L559.03,59.163L559.052,59.171L559.073,59.179L559.095,59.186L559.116,59.194L559.137,59.203L559.159,59.211L559.18,59.219L559.201,59.228L559.222,59.237L559.243,59.246L559.264,59.255L559.285,59.264L559.306,59.274L559.326,59.283L559.347,59.293L559.368,59.303L559.388,59.313L559.408,59.323L559.429,59.334L559.449,59.344L559.469,59.355L559.489,59.366L559.509,59.377L559.529,59.388L559.549,59.399L559.569,59.411L559.588,59.422L559.608,59.434L559.627,59.446L559.647,59.458L559.666,59.47L559.685,59.483L559.704,59.495L559.723,59.508L559.742,59.52L559.761,59.533L559.78,59.546L559.799,59.56L559.817,59.573L559.836,59.587L559.854,59.6L559.872,59.614L559.89,59.628L559.908,59.642L559.926,59.656L559.944,59.671L559.962,59.685L559.979,59.7L559.997,59.715L560.014,59.729L560.032,59.745L560.049,59.76L560.066,59.775L560.083,59.791L560.1,59.806L560.117,59.822L560.133,59.838C560.282,59.981 560.417,60.14 560.535,60.314L560.55,60.336L561.362,61.555L561.371,61.568L561.38,61.58L561.389,61.593L561.408,61.618L561.428,61.642L561.448,61.665L561.469,61.688L561.484,61.704L561.501,61.721L561.516,61.735L561.537,61.754L561.548,61.763L561.559,61.773L561.571,61.782C561.741,61.918 561.955,61.996 562.179,62L562.194,62L572.054,62L572.075,62L572.1,61.999L572.122,61.998L572.147,61.996L572.168,61.993L572.193,61.99L572.214,61.987L572.239,61.983L572.26,61.978L572.284,61.973L572.305,61.968L572.328,61.962L572.349,61.955L572.372,61.948L572.392,61.941L572.415,61.932L572.443,61.921L572.471,61.909L572.498,61.896L572.525,61.882L572.552,61.867L572.578,61.851L572.604,61.835L572.629,61.818L572.654,61.8L572.678,61.781L572.701,61.762L572.724,61.742L572.747,61.721L572.769,61.699L572.79,61.677L572.81,61.654L572.83,61.63L572.844,61.612L572.859,61.593L572.872,61.575L572.886,61.555L573.698,60.336L573.711,60.316L573.724,60.297L573.738,60.278C573.742,60.271 573.747,60.265 573.751,60.259L573.765,60.24L573.779,60.221L573.793,60.202L573.807,60.183L573.821,60.165L573.835,60.146L573.85,60.128L573.864,60.11C574.426,59.418 575.27,59.007 576.171,59L576.194,59L592.124,59Z"/></g><g transform="matrix(0.785714,0,0,4,25.7143,-216)"><path d="M149.273,60C149.273,59.862 148.703,59.75 148,59.75L92,59.75C91.297,59.75 90.727,59.862 90.727,60L90.727,68C90.727,68.138 91.297,68.25 92,68.25L148,68.25C148.703,68.25 149.273,68.138 149.273,68L149.273,60ZM146.727,60.25L146.727,67.75C146.727,67.75 93.273,67.75 93.273,67.75C93.273,67.75 93.273,60.25 93.273,60.25L146.727,60.25Z"/></g></g></g></g></svg>